<mxfile modified="2024-03-16T21:35:41.527Z" host="app.diagrams.net" agent="Mozilla/5.0 (Macintosh; Intel Mac OS X 10_15_7) AppleWebKit/537.36 (KHTML, like Gecko) Chrome/122.0.0.0 Safari/537.36" etag="01qAE86C8LigaaFRFOku" version="24.0.7" type="github">
  <diagram id="Ht1M8jgEwFfnCIfOTk4-" name="Page-1">
    <mxGraphModel dx="1285" dy="723" grid="1" gridSize="10" guides="1" tooltips="1" connect="1" arrows="1" fold="1" page="1" pageScale="1" pageWidth="1169" pageHeight="827" math="0" shadow="0">
      <root>
        <mxCell id="0" />
        <mxCell id="1" parent="0" />
        <mxCell id="68yFl-oDlZvvoO5f-Q9Q-13" value="" style="rounded=1;whiteSpace=wrap;html=1;fillColor=#dae8fc;strokeColor=#6c8ebf;" vertex="1" parent="1">
          <mxGeometry x="942" y="147" width="250" height="341" as="geometry" />
        </mxCell>
        <mxCell id="68yFl-oDlZvvoO5f-Q9Q-2" value="" style="rounded=1;whiteSpace=wrap;html=1;fillColor=#dae8fc;strokeColor=#6c8ebf;" vertex="1" parent="1">
          <mxGeometry x="927" y="160" width="250" height="341" as="geometry" />
        </mxCell>
        <mxCell id="68yFl-oDlZvvoO5f-Q9Q-3" value="&lt;b&gt;Monitoring Agent&lt;/b&gt;" style="rounded=0;whiteSpace=wrap;html=1;fillColor=#d5e8d4;strokeColor=#82b366;" vertex="1" parent="1">
          <mxGeometry x="994" y="180" width="128" height="110" as="geometry" />
        </mxCell>
        <mxCell id="68yFl-oDlZvvoO5f-Q9Q-4" value="Provisioned Products" style="rounded=0;whiteSpace=wrap;html=1;fillColor=#d5e8d4;strokeColor=#82b366;" vertex="1" parent="1">
          <mxGeometry x="960" y="382" width="60" height="80" as="geometry" />
        </mxCell>
        <mxCell id="68yFl-oDlZvvoO5f-Q9Q-5" value="Time Active" style="rounded=0;whiteSpace=wrap;html=1;fillColor=#d5e8d4;strokeColor=#82b366;" vertex="1" parent="1">
          <mxGeometry x="1040" y="382" width="50" height="80" as="geometry" />
        </mxCell>
        <mxCell id="68yFl-oDlZvvoO5f-Q9Q-6" value="Naming conventions&lt;div&gt;&lt;br&gt;&lt;/div&gt;" style="rounded=0;whiteSpace=wrap;html=1;fillColor=#d5e8d4;strokeColor=#82b366;" vertex="1" parent="1">
          <mxGeometry x="1108" y="381" width="60" height="80" as="geometry" />
        </mxCell>
        <mxCell id="68yFl-oDlZvvoO5f-Q9Q-8" value="" style="endArrow=classic;startArrow=classic;html=1;rounded=0;entryX=0.5;entryY=1;entryDx=0;entryDy=0;" edge="1" parent="1" target="68yFl-oDlZvvoO5f-Q9Q-3">
          <mxGeometry width="50" height="50" relative="1" as="geometry">
            <mxPoint x="990" y="380" as="sourcePoint" />
            <mxPoint x="1011" y="280" as="targetPoint" />
          </mxGeometry>
        </mxCell>
        <mxCell id="68yFl-oDlZvvoO5f-Q9Q-9" value="" style="endArrow=classic;startArrow=classic;html=1;rounded=0;entryX=0.61;entryY=1.009;entryDx=0;entryDy=0;entryPerimeter=0;exitX=0.5;exitY=0;exitDx=0;exitDy=0;" edge="1" parent="1" source="68yFl-oDlZvvoO5f-Q9Q-6">
          <mxGeometry width="50" height="50" relative="1" as="geometry">
            <mxPoint x="1125" y="375" as="sourcePoint" />
            <mxPoint x="1067.08" y="289.9899999999999" as="targetPoint" />
          </mxGeometry>
        </mxCell>
        <mxCell id="68yFl-oDlZvvoO5f-Q9Q-12" value="" style="endArrow=classic;startArrow=classic;html=1;rounded=0;entryX=0.561;entryY=1.038;entryDx=0;entryDy=0;entryPerimeter=0;" edge="1" parent="1">
          <mxGeometry width="50" height="50" relative="1" as="geometry">
            <mxPoint x="1062.6269754342043" y="378" as="sourcePoint" />
            <mxPoint x="1061.808" y="290.17999999999995" as="targetPoint" />
          </mxGeometry>
        </mxCell>
      </root>
    </mxGraphModel>
  </diagram>
</mxfile>
